{"title":"Adventures In Babysitting 2016 Movies HDRip XviD ESubs New ☻rDX☻","uid":14998653,"size":739313159,"categoryP":"video","categoryS":"movies","magnet":"?xt=urn:btih:9f1350f81565d8098726e27012ce60e96092af55&amp;dn=Adventures+In+Babysitting+2016+Movies+HDRip+XviD+ESubs+New+%E2%98%BBrDX%E2%98%BB&amp;tr=udp%3A%2F%2Ftracker.leechers-paradise.org%3A6969&amp;tr=udp%3A%2F%2Fzer0day.ch%3A1337&amp;tr=udp%3A%2F%2Fopen.demonii.com%3A1337&amp;tr=udp%3A%2F%2Ftracker.coppersurfer.tk%3A6969&amp;tr=udp%3A%2F%2Fexodus.desync.com%3A6969","seeders":0,"leechers":1,"uploader":"basicssom","files":3,"time":1466365566,"description":"----------------------------------------------------------------\r\nAdventures In Babysitting 2016 English Movies HDRip XviD ESubs AAC New Source with Sample ☻rDX☻\r\n\r\nSCREEN SHOTS &amp; POSTER:\r\n  \nhttp://mobileshosting.com/2016/6/money/index.htm  \nhttp://mobileshosting.com/2016/6/money/1.html  \nhttp://mobileshosting.com/2016/6/money/2.html  \nhttp://mobileshosting.com/2016/6/money/3.html  \nhttp://mobileshosting.com/2016/6/money/4.html  \nhttp://mobileshosting.com/2016/6/money/5.html  \nhttp://mobileshosting.com/2016/6/money/6.html  \nhttp://mobileshosting.com/2016/6/money/7.html  \nhttp://mobileshosting.com/2016/6/money/8.html  \nhttp://mobileshosting.com/2016/6/money/9.html  \nhttp://mobileshosting.com/2016/6/money/10.html\r\n\r\nFormat                                   : Matroska\r\nFormat version                           : Version 4 / Version 2\r\nFile size                                : 694 MiB\r\nDuration                                 : 1h 33mn\r\nOverall bit rate                         : 1 035 Kbps\r\nMovie name                               : Adventures In Babysitting 2016 English Movies HDRip XviD ESubs AAC New Source ☻rDX☻\r\n\r\nVideo\r\nID                                       : 1\r\nFormat                                   : MPEG-4 Visual\r\nFormat profile                           : Advanced   \r\nFormat settings, BVOP                    : Yes\r\nFormat settings, QPel                    : No\r\nFormat settings, GMC                     : No warppoints\r\nFormat settings, Matrix                  : Default (H.263)\r\nCodec ID                                 : V_MS/VFW/FOURCC / XVID\r\nCodec ID/Hint                            : XviD\r\nDuration                                 : 1h 33mn\r\nBit rate                                 : 887 Kbps\r\nWidth                                    : 640 pixels\r\nHeight                                   : 352 pixels\r\nDisplay aspect ratio                     : 16:9\r\nFrame rate mode                          : Constant\r\nFrame rate                               : 23.976 fps\r\nColor space                              : YUV\r\nChroma subsampling                       : 4:2:0\r\nBit depth                                : 8 bits\r\nScan type                                : Progressive\r\nCompression mode                         : Lossy\r\nBits/(Pixel*Frame)                       : 0.164\r\nStream size                              : 594 MiB (86%)\r\nTitle                                    : ☻rDX☻\r\nWriting library                          : XviD 65\r\nDefault                                  : Yes\r\nForced                                   : No\r\n\r\nAudio\r\nID                                       : 2\r\nFormat                                   : MPEG Audio\r\nFormat version                           : Version 1\r\nFormat profile                           : Layer 3\r\nMode                                     : Joint stereo\r\nMode extension                           : MS Stereo\r\nCodec ID                                 : A_MPEG/L3\r\nCodec ID/Hint                            : MP3\r\nDuration                                 : 1h 33mn\r\nBit rate mode                            : Constant\r\nBit rate                                 : 128 Kbps\r\nChannel(s)                               : 2 channels\r\nSampling rate                            : 48.0 KHz\r\nCompression mode                         : Lossy\r\nStream size                              : 85.7 MiB (12%)\r\nTitle                                    : ☻rDX☻\r\nWriting library                          : LAME3.99r\r\nEncoding settings                        : -m j -V 4 -q 3 -lowpass 17 -b 128\r\nDefault                                  : Yes\r\nForced                                   : No\r\n\r\nIMDB \nhttp://www.imdb.com/title/tt4456850/","torrent":{"xt":"urn:btih:9f1350f81565d8098726e27012ce60e96092af55","amp;dn":"Adventures+In+Babysitting+2016+Movies+HDRip+XviD+ESubs+New+%E2%98%BBrDX%E2%98%BB","amp;tr":["udp%3A%2F%2Ftracker.leechers-paradise.org%3A6969","udp%3A%2F%2Fzer0day.ch%3A1337","udp%3A%2F%2Fopen.demonii.com%3A1337","udp%3A%2F%2Ftracker.coppersurfer.tk%3A6969","udp%3A%2F%2Fexodus.desync.com%3A6969"],"infoHash":"9f1350f81565d8098726e27012ce60e96092af55","infoHashBuffer":{"type":"Buffer","data":[159,19,80,248,21,101,216,9,135,38,226,112,18,206,96,233,96,146,175,85]},"announce":[],"urlList":[]}}